<svg viewBox="0 0 40 40" fill="none" xmlns="http://www.w3.org/2000/svg">
<path fill-rule="evenodd" clip-rule="evenodd" d="M7.54 12.8706V13.6306C6.58 13.6306 4.51 13.7506 3.94 13.6606C1.37 13.2406 1.99 9.61062 4.5 9.61062C5.13 9.61062 5.68 9.91062 6 10.2406C6.77 11.0406 6.35 10.4506 7.84 10.4506C8.29 10.4506 8.56 10.6506 8.83 10.8306C8.61 11.1606 8.38 11.4506 8.11 11.7906C7.85 12.1006 7.54 12.3306 7.54 12.8706ZM9.36 12.1106C9.62 11.7206 9.93 11.3806 10.22 10.9906L12.46 8.14062C12.95 7.54062 13.11 7.35062 13.68 8.09062C13.83 8.28062 13.96 8.44062 14.12 8.64062L16.81 12.0406C14.24 12.0306 11.92 12.1106 9.36 12.1106ZM20.69 19.4006V17.0406H21.53V19.6306H20.92C20.75 19.6306 20.69 19.5806 20.69 19.4006ZM18.72 17.0506H19.56V19.6406H18.72V17.0506ZM8.76 22.2206V21.2306L17.58 21.1506V22.1406L8.76 22.2206ZM32.02 23.0506L32.1 25.0306C31.68 24.9206 31.52 24.3506 31.11 24.3506C30.68 24.3506 30.5 24.6106 30.5 24.9606C30.5 25.6206 32.1 26.4906 32.1 26.9406V28.4606C31.23 28.4606 29.79 27.8006 29.28 26.9406C28.41 25.4606 27.92 25.1106 27.92 23.5906C27.92 22.2506 28.55 21.0906 29.23 20.4106C32.51 17.1606 37.5 19.7406 37.5 23.4306C37.5 25.0506 37.18 25.8706 36.22 27.0206C35.67 27.6706 34.24 28.4506 33.24 28.4506C33.24 24.6806 32.9 25.6106 34.4 24.1406C35.2 23.3606 34.9 22.8306 34.15 22.8306C33.89 22.8306 33.46 23.4406 33.24 23.5906C33.24 22.9406 33.32 22.5006 32.85 22.3006C32.37 22.0906 32.02 22.5006 32.02 23.0506ZM18.72 20.7706C19.88 20.7706 23 20.6206 23.84 20.9706C24.75 21.3506 25.09 22.2006 25.62 23.0706L30.46 31.1606C30.84 31.6106 31.51 32.1206 32.11 32.1706V33.8406C31.13 33.8406 30.08 33.9506 29.39 32.9106C29.21 32.6306 29.07 32.4106 28.9 32.1106L27.4 29.5806C26.65 28.3306 24.06 23.6106 23.3 23.0406C22.07 22.1006 20.59 22.3606 18.74 22.3606V20.7706H18.72ZM11.57 23.3606H14.54V24.5806H11.57V23.3606ZM18.72 23.5906C20.04 23.5906 21.7 23.3906 22.49 23.9206C22.9 24.2006 24.67 27.3106 25.03 27.9206C25.35 28.4806 25.67 29.0706 26.02 29.5906C23.59 29.0206 21.14 30.2206 19.97 32.1306C19.69 32.5806 19.27 33.3406 19.25 34.0006H18.79V27.9206C18.79 26.3906 18.72 25.1206 18.72 23.5906ZM8.83 26.5506V23.3606H10.35V27.2406C10.35 28.7206 10.43 29.9406 10.43 31.4206C10.14 31.4006 10.19 31.3406 9.82 31.3406C9.68 29.7206 9.53 29.0506 9.15 27.6706C9.04 27.2906 8.83 26.9306 8.83 26.5506ZM11.57 25.7906H14.54V27.0106H11.57V25.7906ZM12.25 29.4406H11.57V28.2206L14.38 28.1406C14.72 28.1406 14.61 28.5306 14.61 29.3606C13.73 29.3706 13.14 29.4406 12.25 29.4406ZM12.25 29.4406H30.8ZM30.81 29.4406C31.27 29.4506 31.62 29.6606 32.1 29.6706V30.9606C31.74 30.7706 31.57 30.7006 31.33 30.3606C31.21 30.2106 30.85 29.6206 30.81 29.4406ZM6.78 25.9406C7.33 25.9406 7.87 27.5506 8.05 28.1006C8.31 28.9006 8.53 30.0306 8.61 30.9606C7.84 30.7806 7.67 30.6206 6.86 30.8106C6.55 30.2206 5.84 29.8206 5.19 29.6706C5.22 29.5906 5.92 25.9406 6.78 25.9406ZM33.24 29.6706C35.32 29.6706 37.88 27.5806 38.26 25.9406C38.44 25.9806 38.57 26.0206 38.72 26.0906C38.72 27.4106 38.72 28.7306 38.72 30.0406C38.72 31.4106 38.8 32.5306 38.8 33.9206H38.19C38.19 30.7006 38.43 31.1106 36.59 31.1106H33.32C33.31 30.5206 33.24 30.2506 33.24 29.6706ZM11.57 32.2506V30.5806H14.61V34.0006H12.79C12.33 34.0006 12.24 34.0806 11.8 34.0806C11.8 32.5006 11.57 32.8006 11.57 32.2506ZM2.44 32.7106C2.44 31.2506 4.12 30.0306 5.68 31.2206C5.94 31.4206 6.25 32.1006 6.54 32.1006C7.07 32.1006 7.6 31.5906 8.42 32.3506C8.76 32.6706 8.94 32.5606 9.38 32.5006C10.72 32.3006 10.92 34.0806 10.34 34.0806H3.13C2.78 34.0806 2.44 33.2606 2.44 32.7106ZM15.75 32.2506V23.3506H17.57V33.9906H15.82C15.83 33.3206 15.75 32.9506 15.75 32.2506ZM33.31 32.2506H36.96V33.1606C36.96 33.5406 37.03 33.5006 37.04 33.8406H33.31V32.2506ZM24.42 34.0006H20.47C20.49 33.1706 21.36 32.2206 21.89 31.7006C22.99 30.6306 24.95 30.4006 26.42 30.9406C26.66 31.0306 26.83 31.0306 26.98 31.2206L28.6 33.9306C27.12 33.9306 25.9 34.0006 24.42 34.0006ZM1 36.3606V35.1706C1.04 34.8006 1.19 34.5106 1.61 34.2306C1.55 33.9606 1.44 33.8206 1.36 33.4906C0.85 31.2906 2.58 29.6306 4.04 29.5906C4.04 28.6606 5.02 24.7206 6.78 24.7206C7.2 24.7206 7.29 24.8706 7.62 24.9506V18.2606C7.65 18.0306 7.84 17.8006 8.07 17.8006C8.98 17.8006 8.75 18.6306 8.75 20.0006H17.49V13.2306H8.76V16.2006C8.76 16.3806 8.49 16.6606 8.3 16.6606C7.39 16.6606 7.54 15.9406 7.54 14.8406H3.97C3.18 14.8406 2.28 14.3006 1.9 13.8706C-0.12 11.5906 1.91 7.91062 5.16 8.48062C5.75 8.58062 6.53 8.97062 6.79 9.36062C7.68 8.93062 8.87 9.40062 9.6 9.89062L11.9 6.94062C12.16 6.65062 12.5 6.39062 13.02 6.39062C14.16 6.39062 14.36 7.09062 14.98 7.78062L18.5 12.1606C18.85 12.6506 18.72 15.2306 18.72 15.8906C20.25 15.8906 21.52 15.8106 23.05 15.8106C23.55 15.8106 24.19 15.7406 24.19 16.4206C24.19 17.1706 23.44 17.0306 22.67 17.0306C22.68 17.3706 22.75 17.3306 22.75 17.7106V19.6106C23.46 19.6106 23.84 19.6306 24.53 19.9606C25.49 20.4306 26.57 22.0706 26.71 22.6506H26.86C26.86 21.9806 27.3 21.0806 27.58 20.6306C29.61 17.2706 34.14 16.6806 37 19.5206C37.75 20.2606 38.35 21.3606 38.57 22.4306C38.81 23.6106 38.75 23.6606 38.65 24.7806C39.24 25.0606 39.94 24.8806 39.94 25.8406V36.1806C39.94 36.5206 39.68 36.8406 39.46 36.9906C39.13 37.2206 38.87 37.1706 38.35 37.1706C37.82 37.1606 37.63 37.2506 37.14 37.2506H25.5C23.77 37.2506 22.25 37.3306 20.48 37.3306C17.03 37.3306 13.59 37.3306 10.14 37.3306C9.22 37.3306 8.57 37.4106 7.63 37.4106C6.77 37.4106 5.91 37.4106 5.04 37.4106C4.01 37.4106 1.99 37.5906 1.43 37.1406C1.21 36.9806 1 36.7006 1 36.3606ZM2.14 36.2106V35.3006C8.32 35.3006 14.27 35.2206 20.46 35.2206L34.22 35.1406C35.84 35.1406 37.2 35.0606 38.78 35.0606V36.0506C26.52 36.0606 14.42 36.2106 2.14 36.2106Z" fill="#1b3836"/>
<path fill-rule="evenodd" clip-rule="evenodd" d="M21.9102 7.47084C21.9102 8.56084 22.7802 9.37084 23.6602 9.37084H26.8502C27.3202 9.37084 27.6602 8.90084 27.4302 8.49084C27.1902 8.06084 26.6302 8.15084 26.0102 8.15084L23.5702 8.16084C22.7102 7.92084 23.1202 6.44084 24.1002 6.17084C25.2402 5.86084 24.7402 6.25084 25.2002 5.06084C25.3802 4.59084 25.7202 4.07084 26.0802 3.81084C27.0202 3.15084 28.1702 2.98084 29.2202 3.49084C29.8502 3.80084 30.2502 4.29084 30.5402 4.90084C30.7102 5.27084 30.6802 5.65085 30.9202 5.89085C31.4602 6.44085 31.8702 5.57084 32.8102 6.74084C33.0902 7.09084 33.2502 7.09084 33.8302 7.09084C34.2902 7.09084 34.7402 7.09084 35.2002 7.09084C35.4002 7.40084 35.4302 7.18084 35.4302 7.70084C35.4302 7.95084 35.1202 8.12084 34.8902 8.15084C34.6302 8.18084 34.1202 8.15084 33.8302 8.15084C33.2002 8.15084 29.0702 8.10084 28.7602 8.18084C28.0202 8.37084 28.1602 9.37084 28.9602 9.37084L34.7402 9.30084C37.3102 9.32084 37.1402 5.92084 34.8902 5.87084C33.8902 5.85084 33.7702 6.03084 33.3802 5.63084C32.5002 4.71084 31.9702 5.25084 31.7002 4.65084C31.2202 3.59084 30.7002 2.83085 29.4702 2.32085C27.2202 1.38085 24.7802 2.61084 24.0902 4.65084C23.9402 5.10084 24.1402 4.89084 23.5702 5.11084C22.6602 5.47084 21.9102 6.41084 21.9102 7.47084Z" fill="#1b3836"/>
<path fill-rule="evenodd" clip-rule="evenodd" d="M10.5801 16.4397C10.5801 17.9997 11.7601 19.0397 13.1001 19.0697C14.4901 19.0997 15.6801 18.0497 15.6801 16.3597C15.6801 15.0497 14.4701 13.9297 13.1701 13.9297C11.7801 13.9297 10.5801 15.0697 10.5801 16.4397ZM13.2401 17.8797C12.3701 17.8797 11.8001 17.2497 11.8001 16.7397V16.2797C11.8001 15.7497 12.4201 15.1397 12.9401 15.1397C13.3801 15.1397 13.8101 15.1397 14.1701 15.5797C15.0601 16.6697 14.1101 17.8797 13.2401 17.8797Z" fill="#1b3836"/>
</svg>
