<svg  viewBox="0 0 52 52" fill="none" xmlns="http://www.w3.org/2000/svg">
<path d="M41.6 29.0333L35.75 36.8333H31.6333L24.9167 23.1833L35.75 17.55C36.1833 17.3333 36.6167 16.9 36.8333 16.25C36.8333 15.8167 36.8333 15.1667 36.6167 14.5167C36.4 14.3 36.1833 13.8667 36.1833 13.65C32.9333 9.31667 27.95 6.5 22.75 6.5C20.8 6.5 19.0667 6.71667 17.3333 7.36667C16.25 7.8 15.6 8.23333 14.7333 8.66667C14.5167 8.66667 14.5167 8.88333 14.3 8.88333C13 9.75 11.7 10.8333 10.6167 11.9167C8.01667 14.95 6.5 18.85 6.5 22.9667C6.5 25.1333 6.93333 27.3 7.8 29.25C8.01667 29.9 8.45 30.3333 9.1 30.55C9.31667 30.55 9.53333 30.7667 9.75 30.7667C10.1833 30.7667 10.4 30.7667 10.8333 30.55L21.2333 25.35L27.0833 37.05H13C11.7 37.05 10.8333 37.9167 10.8333 39.2167C10.8333 39.8667 11.2667 40.5167 11.9167 40.95L11.05 42.6833C10.6167 43.7667 11.05 45.0667 12.1333 45.5C12.35 45.5 12.7833 45.5 13 45.5C13.8667 45.5 14.5167 45.0667 14.95 44.2L16.4667 41.1667H33.3667L34.8833 44.2C35.3167 45.0667 35.9667 45.5 36.8333 45.5C37.05 45.5 37.4833 45.5 37.7 45.2833C38.7833 44.85 39.2167 43.55 38.5667 42.4667L37.7 40.95C37.9167 40.7333 38.1333 40.7333 38.35 40.5167L44.85 31.85C45.5 30.9833 45.2833 29.4667 44.4167 28.8167C43.7667 27.95 42.25 28.1667 41.6 29.0333ZM11.05 25.35C10.8333 24.7 10.8333 23.8333 10.8333 22.9667C10.8333 21.0167 11.2667 19.0667 12.1333 17.55C12.35 19.5 12.7833 21.6667 14.0833 23.8333L11.05 25.35ZM31.4167 14.95L28.8167 16.25C27.7333 13.8667 26 12.1333 24.05 10.8333C26.8667 11.2667 29.4667 12.5667 31.4167 14.95ZM17.7667 21.8833C15.8167 18.4167 16.4667 14.7333 17.1167 13C19.2833 13.4333 23.4 14.5167 25.1333 18.2L17.7667 21.8833Z" fill="#1b3836"/>
</svg>
