<svg width="52" height="52" viewBox="0 0 52 52" fill="none" xmlns="http://www.w3.org/2000/svg">
<g clip-path="url(#clip0_701_12)">
<path d="M7.2355 36.8317C13.2186 47.1947 26.4697 50.7454 36.8327 44.7624C41.0568 42.3236 44.1491 38.6771 45.9251 34.511C48.5063 28.4562 48.3076 21.3039 44.7633 15.1651C41.2191 9.02622 35.1243 5.27793 28.5903 4.48593C24.0942 3.94095 19.3902 4.79572 15.1661 7.23452C4.80305 13.2176 1.25242 26.4688 7.2355 36.8317Z" stroke="#1b3836" stroke-width="2"/>
<path d="M36.7243 44.5764C36.7243 44.5764 34.6898 30.2955 30.3342 22.7511C25.9783 15.2068 15.2754 7.42578 15.2754 7.42578" stroke="#1b3836" stroke-width="2" stroke-linecap="round"/>
<path d="M47.3714 27.258C35.6475 24.6861 19.6277 35.4213 16.4175 45.1057" stroke="#1b3836" stroke-width="2" stroke-linecap="round"/>
<path d="M35.5639 6.95312C32.3401 16.5321 16.6279 27.1104 4.95898 24.8122" stroke="#1b3836" stroke-width="2" stroke-linecap="round"/>
</g>
<defs>
<clipPath id="clip0_701_12">
<rect width="52" height="52" fill="white"/>
</clipPath>
</defs>
</svg>
