<?xml version="1.0" encoding="UTF-8"?>
<svg id="_Слой_2" data-name="Слой 2" xmlns="http://www.w3.org/2000/svg" viewBox="0 0 20 20">

  <g id="_Слой_1-2" data-name="Слой 1">
    <path class="cls-1" d="m0,.39v19.22c0,.2.19.39.39.39h3.56c.46,0,.43-.57.43-.86h11.25c0,.29-.04.86.43.86h3.56c.2,0,.39-.19.39-.39V.39c0-.2-.19-.39-.39-.39H.39c-.2,0-.39.19-.39.39Zm3.48,4.38v14.33H.9V.9h18.2v18.2h-2.58V4.77c0-.27-.22-.43-.51-.43H3.98c-.28,0-.51.15-.51.43Zm.89.46h5.19v13h-5.19V5.23Zm6.05,0h5.19v13h-5.19V5.23Z"/>
    <path class="cls-1" d="m6.21,3.07c0,.24.17.37.5.37.29,0,.64-.41.87-.52.21.1.85.81,1.29.4.34-.31-.2-.6-.47-.79-.18-.14-.51-.44-.78-.46-.32-.01-.6.27-.79.41-.18.13-.61.38-.61.59Z"/>
    <path class="cls-1" d="m11.03,2.4c0,.24.38.46.56.6.27.2.49.45.87.45.22,0,.5-.27.73-.44.26-.2.84-.5.49-.81-.46-.4-1.02.28-1.3.42-.07-.08-.52-.42-.63-.48-.15-.08-.29-.09-.45-.02-.11.05-.27.19-.27.29Z"/>
    <path class="cls-1" d="m17.24,9.32c0,.36.53.48.66.11.19-.51-.66-.68-.66-.11Z"/>
    <path class="cls-1" d="m17.24,10.65c0,.34.34.5.57.3.1-.08.14-.23.1-.36-.13-.4-.67-.23-.67.07Z"/>
  </g>
</svg>