<?xml version="1.0" encoding="UTF-8"?>
<svg id="_Слой_2" data-name="Слой 2" xmlns="http://www.w3.org/2000/svg" viewBox="0 0 31.29 28.14">
  <defs>
    <style>
      .cls-1 {
        fill: #005030;
      }
    </style>
  </defs>
  <g id="_Слой_1-2" data-name="Слой 1">
    <g>
      <path class="cls-1" d="m23.27,13.11c-.95.7-1.96,1.18-3.16.85-.38-.1-.74-.3-1.09-.5-2.28-1.34-4.56-1.32-6.8.06-.81.5-1.65.67-2.55.44-.43-.11-.81-.37-1.21-.57-.32-.16-.64-.34-.99-.52,1.69-1.69,3.37-3.36,5.07-5.06-.77-.74-1.49-1.47-2.25-2.15-1.07-.95-2.34-1.47-3.76-1.63-1.04-.12-1.76-.86-1.82-1.87-.05-.99.53-1.89,1.47-2.01.63-.09,1.31.03,1.95.14,1.85.31,3.43,1.17,4.75,2.48,3.44,3.4,6.86,6.83,10.29,10.25.03.03.06.07.09.12Z"/>
      <path class="cls-1" d="m5.22,16.4c1.23-.04,2.36.31,3.39.98.81.53,1.68.72,2.61.48.41-.11.8-.35,1.18-.57,1.94-1.11,3.92-1.2,5.95-.28.29.13.56.3.83.46,1.13.67,2.26.67,3.38-.03,1.85-1.17,3.8-1.39,5.83-.59.75.3,1.47.71,2.17,1.12.69.39.9,1.29.54,2.03-.35.7-1.18,1.05-1.92.75-.45-.18-.89-.4-1.3-.66-1.21-.75-2.39-.77-3.6,0-1.67,1.07-3.47,1.28-5.36.69-.49-.16-.97-.4-1.41-.67-1.23-.76-2.43-.78-3.67,0-1.66,1.06-3.46,1.26-5.32.66-.55-.18-1.07-.47-1.57-.76-1.13-.65-2.22-.65-3.35,0-.53.31-1.1.58-1.68.79-.98.34-1.82-.27-1.87-1.31-.04-.89.23-1.32,1.04-1.69.32-.15.62-.33.93-.51,1-.59,2.06-.92,3.23-.89Z"/>
      <path class="cls-1" d="m5.31,23.42c1.25-.05,2.42.38,3.5,1.09.75.49,1.58.58,2.42.36.44-.11.84-.37,1.24-.6,1.79-1.01,3.64-1.14,5.55-.4.42.16.81.4,1.19.63,1.13.66,2.24.66,3.34-.04,1.13-.72,2.35-1.09,3.7-1.05,1.03.03,1.99.3,2.89.81.43.25.87.48,1.32.71.71.37,1.01,1.18.7,1.98-.28.74-1.09,1.17-1.84.9-.5-.17-.99-.41-1.44-.69-1.22-.75-2.4-.76-3.64,0-2.24,1.37-4.52,1.37-6.77,0-1.23-.74-2.4-.75-3.64,0-2.27,1.37-4.57,1.37-6.83-.03-1.18-.72-2.33-.73-3.51-.03-.43.25-.88.48-1.34.67-.84.34-1.72-.02-2.03-.81-.34-.86,0-1.66.85-2.06.42-.19.82-.43,1.22-.66.94-.53,1.95-.8,3.11-.78Z"/>
      <path class="cls-1" d="m26.58,3.9c0,2.15-1.76,3.92-3.9,3.92-2.14,0-3.9-1.76-3.9-3.92C18.77,1.74,20.51,0,22.67,0c2.17,0,3.9,1.74,3.9,3.9Z"/>
    </g>
  </g>
</svg>