<svg id="_Слой_2" data-name="Слой 2" xmlns="http://www.w3.org/2000/svg" viewBox="0 0 30.22 32.73">

  <g id="_Слой_1-2" data-name="Слой 1">
    <path class="cls-1" d="m23.13,0h.13s0,.04,0,.06c0,10.15,0,20.3,0,30.45,0,.1,0,.2.01.3h1.92V7.31h3.05v23.53h1.99v1.89H0v-1.9h3.94V13.02h8.07v17.79h1.89V11.07h-6.91v-6.5c.1-.03.2-.07.3-.09,4.5-1.26,8.99-2.51,13.49-3.78.79-.22,1.57-.46,2.35-.69Zm-3.64,12.82v-3.83h-1.88v3.83h1.88Zm-12.46,3.22v3.83h1.87v-3.83h-1.87Zm12.47,3.84v-3.82h-1.88v3.82h1.88Zm-10.59,7.04v-3.82h-1.87v3.82h1.87Zm8.71-3.82v3.82h1.88v-3.82h-1.88Z"/>
  </g>
</svg>