<svg xmlns="http://www.w3.org/2000/svg" xmlns:xlink="http://www.w3.org/1999/xlink" version="1.1" x="0px" y="0px" viewBox="0 0 97.7 125" enable-background="new 0 0 97.7 100" xml:space="preserve"><path d="M90.8,46.5l-11.9-12V15.2c0-1.4-1.5-3.2-2.9-3.2H63.7c-1.4,0-1.8,1.8-1.8,3.2v2.1L50.4,6.1c-0.5-0.5-1.3-0.7-1.9-0.7  c-0.7,0-1.4,0.3-1.9,0.8L7.2,46.6c-0.7,0.7-0.9,1.4-0.5,2.3C7.1,49.8,8,50,9,50h7.9v42.5c0,1.4,0.7,2.5,2.1,2.5H76  c1.4,0,2.9-1.1,2.9-2.5V50h9.9c1,0,2-0.2,2.4-1.1S91.5,47.3,90.8,46.5z M59,69.7c-0.3,0.2-0.6,0.2-0.9,0.2c-0.6,0-1.2-0.3-1.5-0.9  c-1.7-2.9-4.9-4.7-8.2-4.7c-3.3,0-6.4,1.7-8.1,4.6c-0.5,0.8-1.6,1.1-2.4,0.6c-0.8-0.5-1.1-1.6-0.6-2.4c2.4-3.9,6.6-6.3,11.2-6.3  c4.6,0,9,2.5,11.3,6.5C60.1,68.1,59.8,69.2,59,69.7z M65,63.4c-0.8,0.6-1.9,0.5-2.5-0.3c-3.4-4.3-8.4-6.7-13.8-6.7  c-5.5,0-10.6,2.5-14,6.9c-0.3,0.5-0.9,0.7-1.4,0.7c-0.4,0-0.8-0.1-1.1-0.4c-0.8-0.6-0.9-1.7-0.3-2.5c4-5.3,10.2-8.3,16.8-8.3  c6.5,0,12.6,3,16.6,8.1C65.9,61.6,65.7,62.7,65,63.4z M70.2,57.8c-0.3,0.3-0.7,0.4-1.1,0.4c-0.5,0-1-0.2-1.4-0.6  c-4.8-5.8-11.8-9-19.3-9c-7.4,0-14.4,3.2-19.2,8.9c-0.6,0.7-1.8,0.8-2.5,0.2c-0.7-0.6-0.8-1.8-0.2-2.5C31.9,48.7,39.9,45,48.3,45  c8.5,0,16.6,3.8,22.1,10.3C71,56,70.9,57.1,70.2,57.8z"/><text x="0" y="115" fill="#000000" font-size="5px" font-weight="bold" font-family="'Helvetica Neue', Helvetica, Arial-Unicode, Arial, Sans-serif">Created by Jan Alexander</text><text x="0" y="120" fill="#000000" font-size="5px" font-weight="bold" font-family="'Helvetica Neue', Helvetica, Arial-Unicode, Arial, Sans-serif">from the Noun Project</text></svg>