<svg width="80" height="80" viewBox="0 0 80 80" fill="none" xmlns="http://www.w3.org/2000/svg">
<mask id="mask0_2045_3071" style="mask-type:luminance" maskUnits="userSpaceOnUse" x="5" y="5" width="71" height="70">
<path d="M75.4916 5H5.3584V75H75.4916V5Z" fill="white"/>
</mask>
<g mask="url(#mask0_2045_3071)">
<path fill-rule="evenodd" clip-rule="evenodd" d="M5.3584 22.1303V37.7175C5.3584 38.4217 5.81517 38.8785 6.51936 38.8785C7.73741 38.8785 7.69934 37.9269 7.68031 36.6898V26.2031C7.68031 22.568 7.22354 18.0765 12.3622 16.8775V49.0606C12.3622 55.6267 12.838 51.2303 8.49869 54.5229C8.13708 54.7893 8.00386 54.9606 7.68031 55.1699V43.8268C7.68031 42.4755 7.88967 41.2004 6.51936 41.2004C5.81517 41.2004 5.3584 41.6762 5.3584 42.3804V61.4696C5.3584 65.4473 9.12675 69.1966 13.1045 69.1966H45.0974V73.8595C45.0974 74.5636 45.5542 75.0204 46.2583 75.0204H71.9707C72.6749 75.0204 73.1317 74.5636 73.1317 73.8595V68.0356C73.1317 66.475 70.7907 66.475 70.7907 68.0356V72.6985H59.105V64.5337C59.105 63.8295 58.6482 63.3728 57.944 63.3728H50.9402C50.2361 63.3728 49.7793 63.8295 49.7793 64.5337V72.6985H47.4193V56.959L59.105 50.8497C59.6189 50.8497 69.9533 56.7686 70.7907 56.959C70.7907 58.4244 70.7907 59.8709 70.7907 61.3363C70.7907 62.8399 70.4481 64.5337 71.9517 64.5337C73.2839 64.5337 73.1316 63.3728 73.1126 62.0596C73.1126 60.8034 73.1126 59.5283 73.1126 58.2722C74.3116 58.9002 75.4536 58.8812 75.4536 57.549V51.7251C75.4536 50.7355 74.521 50.45 73.8549 50.1264C70.5052 48.4897 65.8424 45.692 62.3595 43.9601C59.2382 42.3994 59.7902 41.7333 56.8592 43.3701L46.4487 49.0036C45.6684 49.4032 45.0784 49.7648 44.3551 50.1264C43.67 50.469 42.7564 50.7355 42.7564 51.7251V57.549C42.7564 58.8812 43.8984 58.9193 45.0974 58.2722V66.8747H13.9799C11.9625 66.8747 10.6874 66.2276 9.56449 65.295C7.79451 63.8105 7.09032 60.5941 8.42256 58.2722C10.8777 53.99 14.7032 56.2738 14.7032 54.0471V15.5643C14.7032 12.5572 5.3584 15.393 5.3584 22.1303ZM45.0784 55.4745V52.4103C46.2203 51.8203 47.3622 51.2493 48.5041 50.5832L59.105 44.9878L73.1317 52.4103V55.4745L64.4721 50.8687C63.8059 50.5452 63.3872 50.2597 62.7782 49.9361C57.3731 47.2716 60.3992 47.6332 52.0631 51.7822L45.0784 55.4745ZM52.1012 65.6757H56.7831V72.6604H52.1012V65.6757Z" fill="#01512E"/>
<path fill-rule="evenodd" clip-rule="evenodd" d="M49.1703 9.16862C49.1513 10.0822 48.3139 12.8989 48.0665 14.0408C47.0197 18.875 45.6304 24.0137 44.5075 28.8288L29.4341 13.8695L36.533 12.1376C39.4449 11.4334 38.4172 9.47314 36.7805 9.60636C36.1334 9.66346 34.9914 10.0251 34.4014 10.1583L27.2073 11.8712C26.408 12.0615 25.6847 12.3279 25.7989 13.3747C25.8941 14.136 27.9876 15.944 28.6157 16.5721C29.5292 17.4856 34.154 21.9773 34.5727 22.5863C31.4705 22.5863 20.3177 22.415 18.2051 22.5863C16.7016 22.7005 16.7206 24.4514 17.7103 24.8321C18.3764 25.0795 33.2976 24.9082 36.1714 24.9082C37.1992 24.9082 37.0659 24.9843 37.5798 25.5363L43.7843 31.7217C45.7446 33.72 46.3155 31.7597 46.6771 30.0278C46.7913 29.4949 46.9436 28.8859 47.0768 28.3911C47.3052 27.4585 47.8191 25.8598 47.8381 24.9272H58.3628C57.7919 26.0121 53.719 32.6733 53.4716 33.7581C53.0148 35.7184 52.7103 37.4694 52.3106 39.4487C51.5874 43.0077 53.6429 42.1893 54.0997 41.8087L58.6483 37.6978C60.1899 36.4797 60.3231 35.6994 61.5031 33.701L66.5466 24.9082H70.7908V45.0061C70.7908 45.558 70.6576 47.1757 72.085 47.0235C72.4656 46.9854 72.9224 46.6619 73.0746 46.2622C73.2459 45.7864 73.1508 45.1012 73.1508 44.5874V24.3372C73.1698 22.0914 72.2563 22.5863 68.0311 22.5863C68.2785 21.6727 75.1491 10.6722 75.4156 9.41604C76.2149 5.78091 71.1334 2.62159 68.4689 7.56993C68.0692 8.31218 67.6315 9.0354 67.1747 9.77765L65.3096 13.0131C63.6157 15.7537 65.9376 15.7918 66.5657 15.4302C66.9273 15.2208 68.8495 11.6999 69.1921 11.0528C69.5727 11.3002 70.6385 11.9663 71.0953 12.0805C71.0382 12.7467 68.3737 17.0289 67.974 17.714L65.576 21.8821C65.2905 22.396 65.0431 22.7385 64.7576 23.2524L59.9615 31.5694C59.3906 32.521 58.8957 33.3965 58.3819 34.3671C58.0012 34.1197 56.9354 33.4536 56.4787 33.3394C56.5167 32.8065 57.6206 31.0746 57.9251 30.5607L62.6831 22.3579C63.2921 21.3492 64.9289 18.9321 64.6815 18.1708C64.4721 17.5427 63.3302 16.4198 62.1883 18.3611L59.8283 22.5672H48.5803C48.5994 21.8631 51.6064 9.60636 51.911 8.40734C52.5961 5.66672 50.8452 6.19962 48.961 6.63736C47.3433 6.99897 45.8968 7.36058 44.2601 7.77928C43.4036 7.98863 42.7756 8.15992 41.9191 8.35024C41.1388 8.54057 40.3585 8.80701 40.4346 9.72055C40.5869 11.5857 42.9849 10.558 44.4123 10.2535C45.5162 9.987 48.2758 9.18766 49.1703 9.16862ZM72.3895 10.0441C71.9327 9.92991 70.8669 9.28282 70.4863 9.01637C71.0192 6.73252 73.1127 7.32251 73.1127 8.57863C73.1317 8.94024 72.5798 9.77765 72.3895 10.0441ZM55.1654 37.5645C55.3177 36.8984 55.4509 36.1752 55.6032 35.5281C55.9648 35.7755 56.2693 35.9849 56.7641 36.1181C56.6499 36.2894 55.3748 37.4313 55.1654 37.5645Z" fill="#01512E"/>
<path fill-rule="evenodd" clip-rule="evenodd" d="M22.8867 35.3751V40.038C22.8867 41.9602 25.1896 40.9135 25.2277 40.9135C25.2277 42.5122 25.2277 44.1109 25.2277 45.7286C25.2277 47.3273 24.809 49.3637 26.3886 49.3637H40.4153C41.9949 49.3637 41.5762 47.3273 41.5762 45.7286C41.5762 44.1299 41.5762 42.5312 41.5762 40.9135C41.8046 40.9706 43.9172 41.8651 43.9172 40.038C43.9172 33.4529 44.8688 35.0516 39.0069 32.1206C32.6882 28.9613 34.1537 29.0184 30.5757 30.8074L23.7432 34.1761C23.2293 34.4235 22.8867 34.709 22.8867 35.3751ZM25.2277 38.1538V36.1174C26.2744 35.87 32.9737 32.1587 33.4305 32.1397C33.9253 32.1016 38.5692 34.7471 39.5017 35.1467C40.0917 35.3942 41.1956 36.0222 41.5953 36.1174V38.0016C40.7959 37.8112 38.455 36.5171 37.5605 36.0603C32.574 33.5671 33.8873 33.8145 30.4044 35.5845L25.2277 38.1538ZM29.8905 43.5399V47.0418H27.5496V39.6193C28.4631 39.4099 33.0118 36.8216 33.4115 36.8025C33.9444 36.7645 38.2646 39.3719 39.2162 39.6193V47.0418H36.8753C36.8753 41.5225 37.7698 42.3789 31.0324 42.3789C30.3473 42.3789 29.8905 42.8357 29.8905 43.5399ZM32.2315 44.7009H34.5724V47.0228H32.2315V44.7009Z" fill="#01512E"/>
<path fill-rule="evenodd" clip-rule="evenodd" d="M17.0444 28.3908C17.0444 29.1521 17.5012 29.4947 18.2054 29.5518V49.3642C16.4925 49.4974 16.7399 51.6861 18.2054 51.6861C19.9564 51.6861 21.7073 52.0477 21.7073 50.5252C21.7073 49.7639 21.2505 49.4213 20.5463 49.3642V29.5518C22.2592 29.4186 22.0118 27.2299 20.5463 27.2299C18.7954 27.2299 17.0444 26.8683 17.0444 28.3908Z" fill="#01512E"/>
<path fill-rule="evenodd" clip-rule="evenodd" d="M35.0107 15.7159C35.0107 16.8388 37.4088 18.7611 38.4746 19.8269C39.5404 20.8927 41.4816 23.2907 42.6045 23.2907C43.9939 23.2907 44.032 21.083 44.5839 18.8562L45.8019 13.6795C45.8019 13.2227 45.1168 12.5186 44.7742 12.5186L36.971 14.3266C36.0004 14.555 35.0107 14.5931 35.0107 15.7159ZM41.8623 19.6556L38.6078 16.4772L42.871 15.4305C42.852 15.9443 42.0526 19.294 41.8623 19.6556Z" fill="#01512E"/>
<path fill-rule="evenodd" clip-rule="evenodd" d="M24.0492 52.8646C24.0492 54.6155 23.6876 56.3665 25.2102 56.3665C25.9715 56.3665 26.314 55.9097 26.3711 55.2055H38.0568C38.1901 56.9184 40.3978 56.652 40.3978 55.2055C40.3978 53.4546 40.7594 51.7036 39.2368 51.7036C38.4755 51.7036 38.133 52.1604 38.0759 52.8646H26.3902C26.2569 51.1517 24.0492 51.3991 24.0492 52.8646Z" fill="#01512E"/>
<path fill-rule="evenodd" clip-rule="evenodd" d="M55.604 55.1873V59.8502C55.604 60.5544 56.0608 61.0111 56.765 61.0111H61.4469C62.151 61.0111 62.6078 60.5544 62.6078 59.8502V55.1873C62.6078 54.4831 62.151 54.0264 61.4469 54.0264H56.765C56.0608 54.0264 55.604 54.4831 55.604 55.1873ZM57.9449 56.3483H60.2859V58.6702H57.9449V56.3483Z" fill="#01512E"/>
<path fill-rule="evenodd" clip-rule="evenodd" d="M61.4453 64.5135V69.1764C61.4453 69.8805 61.9021 70.3373 62.6063 70.3373H67.2882C67.9924 70.3373 68.4491 69.8805 68.4491 69.1764V64.5135C68.4491 63.8093 67.9924 63.3525 67.2882 63.3525H62.6063C61.9021 63.3525 61.4453 63.8093 61.4453 64.5135ZM63.7863 65.6745H66.1272V67.9964H63.7863V65.6745Z" fill="#01512E"/>
<path fill-rule="evenodd" clip-rule="evenodd" d="M27.5492 58.6893C27.5492 61.1634 27.0734 63.3521 28.7101 63.3521C29.7759 63.3521 29.8711 62.6479 29.8711 61.6012C31.1272 62.4386 30.9369 62.4386 32.212 61.6012C32.212 64.3418 34.553 63.4663 34.553 62.1912C34.553 59.717 35.0288 57.5283 33.392 57.5283C32.4595 57.5283 31.7362 58.8225 31.0511 59.2793C30.385 58.8225 29.6617 57.5283 28.7101 57.5283C28.025 57.5283 27.5492 57.9851 27.5492 58.6893Z" fill="#01512E"/>
</g>
</svg>
