<?xml version="1.0" standalone="no"?>
<!DOCTYPE svg PUBLIC "-//W3C//DTD SVG 20010904//EN"
 "http://www.w3.org/TR/2001/REC-SVG-20010904/DTD/svg10.dtd">
<svg version="1.0" xmlns="http://www.w3.org/2000/svg"
 width="75.000000pt" height="75.000000pt" viewBox="0 0 75.000000 75.000000"
 preserveAspectRatio="xMidYMid meet">

<g transform="translate(0.000000,75.000000) scale(0.100000,-0.100000)"
fill="#000000" stroke="none">
<path d="M140 680 c0 -11 5 -20 10 -20 6 0 10 9 10 20 0 11 -4 20 -10 20 -5 0
-10 -9 -10 -20z"/>
<path d="M60 662 c0 -5 7 -16 16 -23 14 -12 16 -11 13 5 -4 20 -29 35 -29 18z"/>
<path d="M211 657 c-6 -8 -8 -17 -4 -20 7 -8 33 11 33 24 0 13 -16 11 -29 -4z"/>
<path d="M123 630 c-43 -18 -41 -84 4 -101 59 -22 102 59 51 95 -25 18 -25 18
-55 6z m52 -50 c0 -20 -6 -26 -26 -28 -28 -3 -43 16 -32 44 3 9 15 14 32 12
20 -2 26 -8 26 -28z"/>
<path d="M20 580 c0 -5 11 -10 25 -10 14 0 25 5 25 10 0 6 -11 10 -25 10 -14
0 -25 -4 -25 -10z"/>
<path d="M230 580 c0 -5 9 -10 20 -10 11 0 20 5 20 10 0 6 -9 10 -20 10 -11 0
-20 -4 -20 -10z"/>
<path d="M71 516 c-8 -9 -11 -19 -7 -23 9 -9 29 13 24 27 -2 8 -8 7 -17 -4z"/>
<path d="M206 522 c-7 -12 22 -38 31 -28 4 3 0 14 -9 22 -9 10 -18 12 -22 6z"/>
<path d="M140 480 c0 -11 5 -20 10 -20 6 0 10 9 10 20 0 11 -4 20 -10 20 -5 0
-10 -9 -10 -20z"/>
<path d="M301 416 c-29 -16 -50 -52 -51 -88 0 -24 -4 -27 -42 -30 -56 -4 -55
-22 0 -26 l43 -3 -3 -52 c-3 -45 -6 -53 -31 -65 -24 -12 -31 -11 -61 7 -18 12
-42 21 -52 21 -22 0 -104 -41 -104 -52 0 -14 21 -9 62 14 l40 23 39 -23 c43
-25 87 -23 110 4 16 19 38 18 74 -6 17 -11 39 -20 50 -20 11 0 34 9 50 20 36
24 58 25 74 6 23 -27 67 -29 110 -4 l39 23 40 -23 c41 -23 62 -28 62 -14 0 11
-82 52 -104 52 -10 0 -34 -9 -52 -21 -30 -18 -37 -19 -61 -7 -25 12 -28 20
-31 65 l-3 52 123 3 c73 2 123 7 123 13 0 6 -23 11 -51 13 -51 3 -52 3 -58 41
-3 21 -15 46 -26 56 -25 23 -39 12 -17 -13 18 -20 23 -82 7 -82 -5 0 -10 10
-10 23 0 34 -23 60 -53 60 -49 0 -57 -17 -57 -114 0 -75 -3 -89 -16 -89 -14 0
-15 13 -12 91 3 85 5 92 31 115 15 13 39 24 53 24 14 0 22 4 19 10 -11 18 -53
11 -82 -14 l-28 -24 -28 24 c-32 27 -78 31 -116 10z m104 -31 c25 -24 35 -85
15 -85 -5 0 -10 10 -10 23 0 45 -42 73 -81 54 -22 -12 -24 -18 -27 -105 -2
-73 -6 -92 -17 -92 -12 0 -15 16 -15 80 0 43 5 90 11 104 22 48 86 60 124 21z
m-27 -37 c7 -7 12 -20 12 -30 0 -14 -8 -18 -35 -18 -30 0 -35 3 -35 23 0 13 3
27 7 30 10 11 38 8 51 -5z m186 -4 c13 -34 7 -44 -29 -44 -30 0 -35 3 -35 23
0 13 3 27 7 30 12 13 51 7 57 -9z m-134 -84 c0 -5 -25 -10 -55 -10 -30 0 -55
5 -55 10 0 6 25 10 55 10 30 0 55 -4 55 -10z m0 -45 c0 -12 -13 -15 -55 -15
-42 0 -55 3 -55 15 0 12 13 15 55 15 42 0 55 -3 55 -15z m-19 -55 c-13 -11
-29 -20 -36 -20 -7 0 -23 9 -36 20 l-24 19 60 0 60 0 -24 -19z"/>
<path d="M7 294 c-15 -15 8 -24 64 -24 44 0 60 3 57 13 -5 13 -109 23 -121 11z"/>
<path d="M55 89 c-4 -5 -19 -15 -33 -21 -27 -12 -27 -12 -4 -16 13 -2 32 4 41
12 22 20 60 20 85 1 25 -19 75 -19 100 0 26 19 56 19 84 -1 32 -22 43 -7 13
17 -28 23 -80 25 -107 4 -25 -19 -55 -19 -80 0 -22 17 -90 20 -99 4z"/>
<path d="M409 81 c-31 -25 -18 -39 15 -17 31 20 56 20 82 1 25 -19 75 -19 100
0 25 19 68 19 84 0 14 -17 60 -21 60 -5 0 6 -8 10 -19 10 -10 0 -24 7 -31 15
-16 19 -79 19 -104 0 -25 -19 -55 -19 -80 0 -27 21 -79 19 -107 -4z"/>
</g>
</svg>
