<svg width="40" height="40" viewBox="0 0 40 40" fill="none" xmlns="http://www.w3.org/2000/svg">
<path fill-rule="evenodd" clip-rule="evenodd" d="M2.85999 6.04159V9.57159C2.85999 10.8416 3.11 11.4916 3.66 12.2216C4.04 12.7316 5.05 13.5116 5.88 13.5216V16.8316C5.13 16.3316 5.29999 16.1116 4.29999 16.1116C3.84999 16.1116 3.33999 16.6416 3.04999 16.8716C2.80999 17.0616 2 17.6616 2 17.9116V27.8416C2 28.4116 2.95999 28.2716 3.29999 28.2716C3.89999 28.2716 4.50001 28.2716 5.10001 28.2716C5.33001 29.2416 7.43999 30.7616 8.54999 30.7916L6.63 32.6116C6.26 32.9716 4.73999 34.1916 4.73999 34.5316C4.73999 35.0316 5.28 35.4116 5.87 34.8016L6.84 33.9016C7.04 33.6916 7.14 33.6516 7.34 33.4716C7.69 33.1616 7.87999 32.9116 8.26999 32.6016C8.64999 32.2916 8.80999 31.9716 9.26999 31.7316C9.26999 32.3816 9.26999 33.0316 9.26999 33.6716C9.26999 34.3016 9.23001 35.1116 9.85001 35.1116C10.2 35.1116 10.43 34.8816 10.43 34.5316V30.8616C11.28 30.8616 12.26 30.3416 12.79 29.9816C13.12 29.7516 13.38 29.5516 13.65 29.2616C13.84 29.0616 14.24 28.5416 14.31 28.2716H21.15L20.51 31.1616C20.37 31.8716 19.93 33.6116 19.93 34.2516C19.93 35.3616 21.46 35.1116 22.16 35.1116C22.92 35.1116 23.07 34.2916 23.15 33.8716L24.32 28.2716H28.49L28.88 30.1116C29.05 30.8516 29.69 34.2816 29.93 34.6716C30.29 35.2716 31.09 35.1016 32.02 35.1016C32.3 35.1016 32.59 34.8916 32.72 34.7216C32.93 34.4616 32.95 34.1816 32.89 33.8716C32.76 33.2216 32.63 32.6716 32.5 32.0216C32.39 31.4516 32.22 30.7516 32.1 30.1916C32.02 29.8416 31.97 29.5916 31.9 29.2416C31.83 28.9416 31.73 28.5516 31.73 28.2616H38.42C38.59 28.2616 38.85 28.0016 38.85 27.8316V17.9016C38.85 17.7016 38.54 17.4716 38.39 17.3516C37.4 16.5916 36.54 15.4116 35.23 16.5816C34.96 16.8216 34.68 17.0516 34.38 17.2516C33.63 16.8516 32.68 15.3016 31.27 16.5816C31.09 16.7516 30.57 17.1916 30.35 17.2516C30.2 17.1516 30.12 17.0616 29.95 16.9316C29.15 16.3016 29.13 16.1016 28.19 16.1016C27.76 16.1016 27.26 16.6216 26.97 16.8216V5.66159L29.74 9.0116C30.61 10.1116 30.43 10.0916 30.43 11.8516H29.13C28.04 11.8516 28.23 13.0016 28.99 13.0016H35.47C37.35 13.0016 37.13 9.64158 35.34 8.31158C34.91 7.99158 34.43 7.80159 33.96 7.53159C33.52 7.27159 33.05 7.01161 32.56 6.77161C30.98 5.98161 28.67 4.62159 26.97 3.72159C26.97 3.07159 27.05 2.50159 26.39 2.50159C25.76 2.50159 25.81 3.09159 25.81 3.72159L24.42 4.49161C22.51 5.44161 19.98 6.97159 18.04 7.97159C17.77 8.11159 17.56 8.2116 17.34 8.4216C16.94 8.8016 16.62 9.10159 16.39 9.63159C15.89 10.7616 15.68 13.0116 17.4 13.0116H25.82V16.8216C25.09 16.3316 24.52 15.5716 23.28 16.5916C23 16.8216 22.63 17.1816 22.36 17.2516C21.35 16.5716 20.73 15.4216 19.31 16.5816L18.47 17.2516C18.24 17.1916 17.79 16.7916 17.59 16.6216C16.16 15.4516 15.65 16.4416 14.44 17.2516C13.39 16.6916 12.81 15.3616 11.32 16.5816C11.08 16.7716 10.68 17.1816 10.41 17.2516C9.35 16.5416 9.43 16.1016 8.25 16.1016C7.82 16.1016 7.32 16.6216 7.03 16.8216V13.5116C7.8 13.4916 8.78001 12.8016 9.17001 12.3416C9.67001 11.7516 10.05 10.9016 10.05 9.84158V5.59158C10.05 1.76158 4.63999 0.471603 3.10999 4.3316C2.92999 4.8416 2.85999 5.3916 2.85999 6.04159ZM2.85999 6.04159H24.02ZM24.02 6.04159H28.77ZM24.02 6.04159C23.83 6.39159 22.5 7.96159 22.14 8.41159C21.16 9.64159 21.29 9.80158 21.29 11.8716C20.59 11.8716 19.9 11.8716 19.2 11.8716C18.81 11.8716 17.39 12.0416 17.22 11.7616C16.97 11.3616 17.37 10.1816 17.47 9.99161C17.89 9.17161 19.62 8.35159 20.54 7.88159C20.83 7.74159 20.97 7.64159 21.24 7.50159L24.02 6.04159ZM28.77 6.04159L31.88 7.68161C33.39 8.60161 34.99 8.9416 35.51 10.3916C35.66 10.8116 35.61 11.3416 35.61 11.8716H31.58C31.58 10.1316 31.55 9.39161 30.7 8.43161L28.77 6.04159ZM5.88998 12.3716C4.96998 12.2916 4.01999 11.1716 4.01999 10.0716V5.54159C4.01999 4.30159 5.14999 3.16159 6.17999 3.16159C7.03999 3.16159 7.53 3.17158 8.25 3.90158C8.6 4.26158 8.91 4.79159 8.91 5.47159V10.1516C8.91 10.7516 8.62001 11.2516 8.35001 11.6016C8.07001 11.9516 7.52001 12.3416 7.04001 12.3816V7.84158C7.05001 7.29158 6.99999 6.91159 6.45999 6.91159C5.65999 6.91159 5.88 8.1916 5.88 9.3616C5.89 10.3516 5.88998 11.3616 5.88998 12.3716ZM22.37 10.7116C22.37 9.71161 22.84 9.30159 23.43 8.60159L25.83 5.6716V11.8616H22.38V10.7116H22.37ZM18.98 18.4216C18.98 18.1416 20.21 17.3116 20.42 17.2016C20.62 17.3116 21.86 18.1616 21.86 18.4216V20.8716H18.98V18.4216ZM23.02 18.2016C23.27 18.1316 23.18 18.1316 23.37 17.9816L24.39 17.2016C24.72 17.2916 25.2 17.7916 25.51 18.0216C25.64 18.1216 25.83 18.2416 25.83 18.4216V20.8716H23.02V18.2016ZM26.97 18.4216C26.97 18.2216 27.13 18.1516 27.26 18.0616C27.39 17.9616 27.49 17.8816 27.62 17.7816C27.93 17.5416 28.02 17.4116 28.41 17.2016C28.59 17.3016 29.85 18.1916 29.85 18.4216V20.8716H26.97V18.4216ZM30.93 18.4216C30.93 18.2116 31.09 18.1716 31.23 18.0716C31.35 17.9716 31.46 17.8916 31.59 17.7816C31.85 17.5716 32.08 17.3516 32.37 17.1916C32.58 17.3016 33.81 18.1316 33.81 18.4116V20.8616H30.93V18.4216ZM18.98 24.0316C18.98 23.0216 18.8 22.0116 19.27 22.0116H33.52C33.99 22.0116 33.81 23.0216 33.81 24.0316C33.81 24.2016 33.69 24.3216 33.52 24.3216H19.41C19.2 24.3216 18.98 24.2516 18.98 24.0316ZM4.37 25.6816C4.37 26.2216 4.48 26.7516 4.59 27.1916H3.07999V18.4116C3.07999 18.2216 3.47001 17.9616 3.73001 17.7616C4.72001 16.9916 4.29001 17.0316 5.57001 18.0016C5.70001 18.1016 5.88998 18.2216 5.88998 18.4016V25.1716C5.57998 25.1816 4.37 25.1016 4.37 25.6816ZM7.04001 18.4216C7.04001 18.1316 8.28001 17.3016 8.48001 17.2016C8.83001 17.3916 9.45001 17.9616 9.92001 18.2816V22.8216C9.92001 23.3416 9.93001 23.8316 10.42 23.8316C10.96 23.8316 11 23.4516 11 22.9016V18.2916C11.47 17.9716 12.1 17.3916 12.44 17.2116C12.65 17.3216 13.88 18.1516 13.88 18.4316V25.2016H7.04001V18.4216ZM28.99 25.4016H29.93L31.8 34.0416H30.86C30.53 32.6316 30.21 31.1416 29.93 29.7216C29.78 28.9916 29.62 28.3216 29.47 27.5916C29.4 27.2016 29.12 25.6616 28.99 25.4016ZM21.79 34.0316H21.07C21.07 33.6216 21.85 30.2516 21.95 29.7316C22.09 29.0416 22.26 28.3416 22.41 27.5916L22.87 25.3916H23.81L22.06 33.5716C22 33.8416 22.06 34.0316 21.79 34.0316ZM31.08 25.4016H33.82V27.2016H31.44C31.43 26.9916 31.13 25.5316 31.08 25.4016ZM21.36 27.2016H18.98V25.4016H21.71C21.67 25.9816 21.41 26.6016 21.36 27.2016ZM5.53 26.3316H13.81C13.81 28.0016 11.93 29.7816 10 29.7816C8.07 29.7816 6.99 29.2316 6.03 27.7116C5.88 27.4716 5.84 27.3416 5.75 27.0616C5.67 26.8916 5.59 26.4816 5.53 26.3316ZM15.03 18.4216C15.03 18.2016 15.42 17.9716 15.66 17.7616C15.85 17.5916 16.23 17.2616 16.47 17.2016C16.72 17.3716 16.89 17.5116 17.13 17.6916C17.39 17.9016 17.61 18.1416 17.84 18.2016V27.2016H15.03V18.4216ZM24.96 25.4016H27.84C28 25.7216 28.12 26.8916 28.27 27.2016H24.6C24.6 26.8516 24.86 25.8016 24.96 25.4016ZM34.96 18.4216C34.96 18.1716 36.12 17.3116 36.33 17.2016C36.68 17.3816 37.07 17.7516 37.43 18.0416C37.59 18.1616 37.77 18.2116 37.77 18.4216V27.2016H34.96V18.4216Z" fill="#1b3836"/>
<path fill-rule="evenodd" clip-rule="evenodd" d="M2 36.9821C2 37.3121 2.16999 37.5621 2.57999 37.5621H29.35C30.12 37.5621 30.19 36.4121 29.13 36.4121H2.63998C2.29998 36.4121 2 36.6121 2 36.9821Z" fill="#1b3836"/>
<path fill-rule="evenodd" clip-rule="evenodd" d="M31.36 36.9824C31.36 37.3124 31.53 37.5623 31.94 37.5623H38.27C38.62 37.5623 38.81 37.3524 38.85 37.1124V36.9224C38.81 36.6524 38.59 36.4023 38.2 36.4023H32.08C31.65 36.4123 31.36 36.5624 31.36 36.9824Z" fill="#1b3836"/>
</svg>
