<svg id="_Слой_2" data-name="Слой 2" xmlns="http://www.w3.org/2000/svg" viewBox="0 0 35.27 35.26">
  <g id="_Слой_1-2" data-name="Слой 1">
    <g>
      <path class="cls-1" d="m21.56,7.54c.11,0,.22-.02.28-.02.13-1.03.23-2.02.38-3,.25-1.59.78-3.1,1.55-4.52h-.14c-.71.28-1.47.47-2.12.85-2.23,1.28-3.51,3.22-3.79,5.79-.07.66.18.9.85.9,1,0,1.99,0,2.99,0Z"/>
      <path class="cls-1" d="m35.03,5.38c-.84-2.75-2.65-4.53-5.43-5.3-.06-.02-.12-.05-.18-.08h-.21s.02.09.05.13c.82,1.49,1.31,3.09,1.55,4.77.12.86.21,1.72.31,2.62h.33c.98,0,1.95-.01,2.93,0,.39,0,.69-.1.9-.43v-.69c-.08-.34-.14-.69-.24-1.02Z"/>
      <path class="cls-1" d="m28.07,3.53c-.32-1.26-.82-2.45-1.54-3.53h-.07c-1.66,2.23-1.96,4.85-2.16,7.52h4.35c-.07-1.36-.25-2.69-.58-3.99Z"/>
      <path class="cls-1" d="m32.04,16h-4.9v-.4c0-1.09,0-2.18,0-3.27,0-.57-.39-1.05-.95-1.08-1.2-.06-2.42-.09-3.56.37-.58.23-1.11.56-1.69.86v-2.99h-2.12v10.29c0,4.75,0,9.5,0,14.25,0,.81.41,1.22,1.23,1.22,4.33,0,8.65,0,12.98,0,.56,0,.96-.24,1.1-.7.06-.2.07-.43.07-.64,0-8,0-16,0-23.99v-.41h-2.16v6.49Zm-7.05-2.6v2.6h-3.81c.09-1.39,2.2-2.84,3.81-2.6Zm-4.04,4.79h4.03v2.08h-4.03v-2.08Zm4.04,14.93h-4.02v-2.11h4.02v2.11Zm-4.02-4.28v-2.11h4.02v2.11h-4.02Zm4.02-4.29h-4.03v-2.08h4.03v2.08Z"/>
      <path class="cls-1" d="m13.65,18.84c-3.21-1.35-6.43-2.7-9.66-4.03-.89-.37-1.81.03-2.17.89-.35.84.04,1.78.93,2.15,3.18,1.34,6.37,2.66,9.56,3.99.21.09.44.12.66.18.78-.04,1.46-.56,1.62-1.28.18-.78-.2-1.58-.95-1.89Z"/>
      <path class="cls-1" d="m16.47,12.08c0-.46,0-.91,0-1.4-3.19,1.01-6.34,2.01-9.59,3.04,2.04.85,3.98,1.66,5.92,2.47.09.04.22.04.32.01,1.05-.33,2.09-.68,3.13-1.01.18-.06.22-.15.21-.32,0-.93,0-1.86,0-2.79Z"/>
      <path class="cls-1" d="m2.31,26.08c-1.02-.42-2.09.15-2.28,1.18-.16.83.31,1.64,1.17,1.99,1.76.72,3.52,1.43,5.28,2.15.24.1.48.19.73.29.15-1.19.67-2.13,1.61-2.9-.62-.26-1.18-.5-1.75-.73-1.58-.66-3.16-1.33-4.75-1.98Z"/>
      <path class="cls-1" d="m11.4,30.03c-1.11-.01-2.06.91-2.08,2.05-.02.81,0,1.63,0,2.44,0,.47.27.73.76.73.44,0,.87,0,1.31,0,.42,0,.85,0,1.27,0,.53,0,.78-.25.78-.77,0-.79,0-1.58,0-2.37,0-1.15-.91-2.07-2.04-2.08Z"/>
      <path class="cls-1" d="m6.57,25.54c.14.06.36.05.5-.02,1.17-.61,2.32-1.24,3.48-1.86.07-.04.14-.09.22-.15-.05-.04-.08-.06-.11-.08-1.44-.6-2.89-1.21-4.34-1.8-.1-.04-.27-.01-.37.04-.7.37-1.39.76-2.08,1.14-.58.32-1.16.64-1.76.97.42.14.81.25,1.19.4,1.09.44,2.17.91,3.27,1.35Z"/>
    </g>
  </g>
</svg>