<svg width="60" height="60" viewBox="0 0 60 60" fill="none" xmlns="http://www.w3.org/2000/svg">
<path fill-rule="evenodd" clip-rule="evenodd" d="M26.7107 51.6328C27.9247 22.5381 20.9957 27.209 51.5591 26.8094L51.5441 51.5978L26.7057 51.6378L26.7107 51.6328ZM19.8317 42.5757H24.4527L24.4327 51.6028L19.7967 51.5529L19.8317 42.5757ZM8.4366 42.5357L17.4887 42.5707L17.4638 51.5879L8.41661 51.6278L8.44159 42.5407L8.4366 42.5357ZM8.4316 31.2006L21.1206 31.1906L24.4477 31.1956L24.4377 40.2727L16.8143 40.2677L8.35167 40.3476L8.39663 35.8715L8.4316 31.1906V31.2006ZM8.53651 19.8354L17.4588 19.9304L17.4837 28.7327C15.97 29.1723 10.3649 28.8876 8.39164 28.8926L8.53651 19.8354ZM42.5619 19.8554L51.5192 19.8255L51.4692 24.4814L42.552 24.3915L42.5619 19.8554ZM19.8966 19.8454L40.219 19.8155L40.149 24.5164C33.8495 24.1817 26.9006 23.7221 25.212 28.9026L19.7867 28.8626L19.9016 19.8454H19.8966ZM31.1868 8.46532L51.5541 8.50029L51.4992 17.5225L31.1768 17.4325L31.1868 8.47032V8.46532ZM8.45658 8.46033L28.8439 8.52527C28.9538 18.8513 29.4284 17.5724 26.7857 17.5225L8.42161 17.5025L8.45158 8.46033H8.45658ZM6.08864 47.4415C6.20354 49.2449 5.87382 52.1474 6.32843 53.6211C8.05193 54.2755 52.0487 54.2655 53.6673 53.6311C54.2468 51.7377 53.8921 22.8878 53.8971 16.7831L53.9271 7.62605C53.8421 6.33717 53.8072 6.31719 52.5882 6.14234C47.6126 6.1973 7.64229 5.6178 6.55823 6.46706C6.04368 6.96663 6.09363 7.46619 6.09863 8.43035C6.13859 16.7731 5.82387 29.2872 6.14858 36.6858C6.27847 39.6532 6.31844 44.544 6.08864 47.4415Z" fill="#1b3836"/>
<path fill-rule="evenodd" clip-rule="evenodd" d="M32.3361 46.1698C34.2844 46.6743 35.2935 44.6561 36.5374 43.4921L43.6712 36.3633C44.3706 35.6389 47.0683 33.6457 46.0092 32.5066C44.7453 31.1478 42.6022 34.1302 41.8778 34.8396C40.6639 36.0336 39.5648 37.0877 38.3658 38.3266C37.1319 39.6005 36.0079 40.6995 34.734 41.9484C32.6508 43.9817 31.6467 44.5462 32.3361 46.1648V46.1698Z" fill="#1b3836"/>
<path fill-rule="evenodd" clip-rule="evenodd" d="M31.6615 38.7629C33.1652 38.9527 33.4499 38.3982 34.1793 37.6438C35.7729 35.9853 40.3739 32.3634 38.2258 31.3693C36.8819 30.7448 33.4599 34.8163 32.0211 36.295C31.092 37.2492 30.9621 37.6039 31.6615 38.7579V38.7629Z" fill="#1b3836"/>
<path fill-rule="evenodd" clip-rule="evenodd" d="M46.9384 41.5538C47.5029 40.7545 47.1732 39.0909 45.4796 39.7154C44.7952 39.9651 39.8295 45.1257 39.7196 45.3555C39.2401 46.3696 39.8895 47.4986 41.1534 47.094L45.03 43.3772C45.3597 43.0375 46.8484 41.6787 46.9384 41.5488V41.5538Z" fill="#1b3836"/>
</svg>
