<svg width="60" height="60" viewBox="0 0 60 60" fill="none" xmlns="http://www.w3.org/2000/svg">
<path fill-rule="evenodd" clip-rule="evenodd" d="M41.587 48.3205L53.9364 48.4021L53.9454 53.9569L41.605 53.937L41.5877 48.3212L41.587 48.3205ZM6.12013 50.3163C5.08229 44.6573 13.9175 43.0874 14.818 48.9405C15.6902 54.6105 7.12747 55.8107 6.12013 50.3163ZM39.5681 53.9843L15.2132 53.9363C15.6132 53.1921 16.1658 52.7038 16.6233 51.4672C17.2916 49.6634 16.8923 13.2726 16.8923 13.2253L16.9048 11.3035C21.7487 11.6101 47.8154 11.3556 53.9065 11.3529C54.136 22.3019 53.9419 35.0753 53.9481 46.3651C51.9654 46.3494 40.3772 45.9927 39.7657 46.8631C39.4295 47.3418 39.5522 52.9507 39.5667 53.985L39.5681 53.9843ZM14.8728 44.8384C10.9405 42.2109 9.57128 42.9585 6.20125 44.6429C6.37803 37.5245 6.21511 30.194 6.21511 23.0508C6.21511 19.4913 6.3198 15.7787 6.21719 12.2383C6.14995 9.89751 6.07992 5.93258 10.4788 5.995C14.9983 6.05947 14.8707 10.3303 14.8666 12.4873L14.8721 44.8384H14.8728ZM4.09992 50.6737C5.422 55.212 7.70012 55.9479 12.9621 55.9452H52.4416C54.0244 55.95 55.1025 56.2229 55.7001 55.5048L55.9635 33.1213C55.9427 25.4335 56.0529 17.719 55.9663 10.0326C55.2293 8.97915 53.6563 9.34334 51.9446 9.34403L37.0467 9.34334C33.2877 9.34266 19.472 9.52647 16.9346 9.2823C16.2309 7.85229 16.0528 6.04026 13.3947 4.67267C11.4917 3.69327 8.79412 3.78997 7.06438 4.91958C2.93937 7.61362 4.17271 12.5559 4.17271 18.1374L4.09992 50.6737Z" fill="#1b3836"/>
<path fill-rule="evenodd" clip-rule="evenodd" d="M21.0521 47.4221L23.405 47.4786L23.4589 49.9256L21.0228 49.941L21.0528 47.4221H21.0521ZM35.1856 31.0715L35.204 33.1452L38.6088 33.1634L38.5965 37.7462L26.9646 37.7155L26.8432 29.431C25.47 28.5456 25.1418 29.3313 24.3942 27.7955C25.543 27.2261 26.511 26.1948 27.6386 25.375C29.5208 24.0053 31.7297 24.4895 34.7702 24.5537L34.7047 22.4653L31.5728 22.5379C31.9412 21.972 31.581 22.4269 32.0865 21.935L33.3301 20.9581C33.9502 20.5262 34.6644 20.1452 35.6584 20.393C36.5336 20.61 44.5459 27.1912 45.6333 28.0558C44.9279 28.5519 45.3727 28.4625 44.4824 28.8338C43.7388 29.1436 43.8255 28.7682 43.2238 29.5587C42.5505 31.1196 43.0075 35.6753 43.0294 37.7455L40.6062 37.74C40.6356 34.9196 40.8348 34.1025 40.3818 31.3164C39.1232 30.7833 36.799 31.1057 35.1863 31.0715H35.1856ZM46.5556 15.15L49.0162 15.1088L48.9487 17.5949L46.5869 17.5035L46.5549 15.15H46.5556ZM21.0242 15.1088L23.4514 15.1235L23.437 17.5677L21.0262 17.5901L21.0242 15.1088ZM19.3064 19.4335C20.284 19.7685 25.444 20.2911 25.4365 18.6346L25.4311 17.0346L33.9925 17.0458C33.9822 19.2849 34.4502 17.6256 31.8927 19.4684C26.1467 23.6068 30.0188 22.2811 19.5247 22.5295L19.5049 24.449L25.2366 24.4867C24.9699 24.7993 25.1023 24.6625 24.8253 24.9486C23.9453 25.8578 21.8025 27.0161 21.8039 27.8806C22.1402 28.9468 23.699 30.5286 24.9563 30.7763C24.9379 42.2412 23.3518 39.5611 34.0054 39.7774L33.9645 40.8764C30.7985 41.1101 26.1276 40.9315 22.6266 40.9964L22.4827 35.2252L20.6401 35.2155L20.5118 40.1263C20.5234 43.5928 20.1005 43.0241 25.6937 43.0241C28.3263 43.0241 31.4193 43.172 33.9945 42.9766L33.9952 47.3732L25.4318 47.3607C25.4174 44.9367 24.7632 45.4104 22.5202 45.4216C18.7866 45.439 19.0274 44.4838 19.0274 50.1217C19.0274 52.3643 19.7014 51.9764 22.7617 51.9715C25.5573 51.968 25.414 52.2534 25.4352 49.4079L36.0049 49.41L35.9947 39.8011L38.6163 39.769C38.6129 41.0313 38.1804 43.1392 39.3156 43.6353C39.6853 43.7972 39.4458 43.7302 39.8722 43.7812L50.5081 43.7916L50.5579 41.7605L40.6117 41.7716L40.5987 39.7307C42.2428 39.8158 43.8623 39.9854 44.9272 39.3288C45.183 37.0673 45.037 33.1661 45.0357 30.8161C46.7172 30.2704 48.1989 28.5505 48.1989 27.8785C47.8667 26.677 46.2124 25.779 45.2765 25.0861L37.2069 18.8418C35.8173 18.0687 36.0015 18.9151 35.9845 17.043L44.6141 17.0339C44.5186 20.1606 44.7894 19.6247 48.1703 19.6247C51.3343 19.6247 50.9386 20.0287 50.9979 15.3684C51.0321 12.6757 50.6807 13.0951 46.9424 13.0434C44.9026 13.0155 44.6789 12.8209 44.5431 14.9302L25.5484 14.9979C25.1957 13.3623 25.6876 13.0742 23.7638 13.0337C18.6208 12.9269 19.0042 12.8927 19.0226 15.8798C19.0315 17.1888 18.8685 18.5034 19.3051 19.4307L19.3064 19.4335Z" fill="#1b3836"/>
</svg>
